<?xml version="1.0" standalone="no"?>
<!DOCTYPE svg PUBLIC "-//W3C//DTD SVG 20010904//EN"
 "http://www.w3.org/TR/2001/REC-SVG-20010904/DTD/svg10.dtd">
<svg version="1.0" xmlns="http://www.w3.org/2000/svg"
 width="1543.000000pt" height="647.000000pt" viewBox="0 0 1543.000000 647.000000"
 preserveAspectRatio="xMidYMid meet">

<g transform="translate(0.000000,647.000000) scale(0.100000,-0.100000)"
fill="#000000" stroke="none">
<path d="M14085 3987 c-14 -22 -16 -103 -17 -754 -1 -695 0 -732 18 -762 21
-36 33 -38 65 -12 23 18 24 26 29 188 3 92 9 174 13 181 6 8 41 12 117 12
l109 0 16 -30 c12 -22 15 -65 15 -190 l0 -161 23 3 c22 3 22 6 25 163 3 196 1
192 116 193 120 1 120 0 113 -170 -6 -117 -4 -137 12 -163 10 -18 27 -31 42
-33 48 -6 50 13 46 403 -3 198 -8 377 -12 399 -13 67 -83 154 -155 191 -54 28
-153 39 -228 26 -37 -7 -79 -18 -92 -26 -14 -8 -32 -17 -40 -21 -8 -4 -29 -20
-46 -36 -20 -19 -40 -28 -53 -26 -22 3 -22 4 -24 305 -2 324 -2 322 -54 337
-16 5 -26 1 -38 -17z m525 -612 c43 -27 57 -43 87 -102 20 -41 24 -65 28 -195
3 -82 7 -154 11 -159 3 -6 0 -17 -7 -25 -10 -12 -32 -15 -103 -13 -119 4 -126
10 -126 105 0 40 -5 85 -11 101 -12 29 -15 296 -3 314 9 16 83 0 124 -26z
m-216 9 c13 -5 16 -22 16 -86 0 -44 5 -89 12 -101 10 -18 21 -164 19 -261 0
-37 -21 -45 -81 -34 -30 5 -74 8 -97 5 -64 -7 -79 9 -87 92 -7 70 4 165 27
226 15 42 94 131 131 149 35 18 39 18 60 10z"/>
<path d="M8250 3941 c-60 -11 -95 -23 -160 -55 -98 -48 -110 -56 -184 -132
-57 -59 -84 -96 -118 -167 -43 -88 -51 -111 -79 -222 -18 -69 -18 -366 -1
-425 54 -184 86 -244 177 -336 178 -179 446 -230 727 -137 l81 27 42 -23 c46
-24 76 -19 89 15 3 8 6 147 6 307 -1 319 -4 337 -61 379 -40 30 -92 37 -281
39 -219 1 -225 -2 -250 -106 -5 -22 -13 -60 -16 -85 -6 -41 -10 -45 -37 -48
-58 -7 -71 63 -36 193 34 125 34 125 88 126 154 2 188 26 198 146 9 122 16
125 129 73 81 -37 141 -40 181 -8 65 51 90 195 46 260 -43 62 -151 131 -263
167 -46 15 -219 22 -278 12z m218 -86 c76 -18 111 -35 180 -88 l53 -40 -3 -56
c-3 -56 -3 -56 -37 -59 -19 -2 -44 1 -55 6 -91 43 -121 52 -177 53 -88 2 -103
-15 -107 -124 -5 -135 1 -127 -96 -127 -75 0 -88 -3 -113 -24 -33 -28 -53 -83
-53 -143 0 -22 -7 -60 -15 -83 -9 -26 -15 -78 -15 -132 0 -133 25 -178 101
-178 17 0 48 -5 68 -11 45 -13 101 8 118 43 18 39 33 116 33 168 0 62 2 63
184 58 111 -2 138 -6 152 -20 15 -15 17 -43 15 -244 -1 -205 -3 -229 -21 -253
-20 -29 -86 -65 -135 -76 -16 -3 -52 -11 -80 -17 -64 -13 -217 -4 -275 17 -96
35 -151 69 -203 125 -50 53 -117 170 -117 202 0 8 -4 18 -8 23 -33 37 -49 378
-23 482 33 129 35 135 65 204 20 47 82 137 116 170 63 62 164 110 275 133 44
8 113 5 173 -9z"/>
<path d="M9440 3941 c-96 -16 -217 -84 -270 -151 -17 -21 -42 -64 -56 -95 -24
-52 -26 -66 -22 -153 3 -80 9 -106 30 -148 25 -47 97 -124 117 -124 5 0 16
-12 26 -26 19 -30 7 -54 -29 -54 -35 0 -86 -38 -102 -75 -8 -19 -14 -63 -14
-97 0 -35 -10 -99 -22 -143 -22 -85 -34 -191 -24 -230 8 -30 129 -121 216
-162 113 -54 262 -70 397 -43 76 15 107 27 170 67 102 64 162 152 178 257 11
75 2 213 -15 230 -6 6 -10 26 -10 46 -1 53 -21 80 -76 100 -27 10 -78 31 -114
48 -66 30 -126 52 -260 92 -41 13 -83 27 -92 31 -10 5 -23 9 -28 9 -20 0 -134
60 -162 85 -60 52 -78 92 -78 172 0 93 24 148 94 209 79 69 138 87 266 81 110
-5 141 -14 227 -69 23 -15 53 -43 68 -62 32 -42 50 -50 75 -33 33 20 24 54
-28 105 -48 48 -118 90 -195 117 -49 18 -202 27 -267 16z m200 -857 c52 -9 99
-20 105 -25 5 -5 20 -9 32 -9 34 0 116 -85 131 -136 42 -142 -27 -293 -166
-361 -54 -27 -64 -28 -197 -28 -138 0 -141 1 -210 34 -100 48 -153 90 -160
126 -3 17 -1 55 5 85 6 30 20 107 30 170 10 63 19 116 19 117 4 14 79 37 135
42 89 8 156 4 276 -15z"/>
<path d="M5430 3542 c-17 -14 -23 -30 -25 -68 -3 -66 -3 -64 -20 -64 -9 0 -18
-7 -22 -16 -3 -8 -16 -20 -29 -25 -13 -4 -24 -15 -24 -23 0 -20 59 -28 150
-20 93 8 126 1 135 -26 3 -11 13 -27 22 -35 8 -9 17 -30 20 -48 7 -45 13 -47
13 -3 0 57 23 102 56 110 27 7 43 21 44 38 0 4 -20 19 -44 33 -49 29 -82 27
-112 -6 -26 -29 -82 -24 -123 11 -41 35 -37 50 15 65 35 9 39 14 42 46 3 34 1
37 -29 43 -43 8 -44 8 -69 -12z"/>
<path d="M1972 3518 c-63 -21 -122 -63 -122 -87 0 -9 -7 -29 -15 -45 -23 -43
-30 -214 -11 -246 8 -14 19 -34 25 -45 5 -11 20 -30 34 -43 21 -20 38 -24 130
-29 90 -5 110 -3 132 11 24 16 26 22 21 64 -3 26 -5 69 -5 95 0 68 -21 97 -71
97 -29 0 -40 -5 -45 -19 -11 -35 29 -90 67 -91 32 0 30 -22 -3 -51 -30 -26
-40 -29 -89 -26 -60 3 -110 30 -145 76 -15 19 -21 45 -23 101 l-3 75 38 18
c21 10 58 29 83 42 50 27 86 31 125 13 19 -8 31 -8 51 1 22 10 25 16 19 39 -9
36 -16 42 -61 53 -64 16 -77 15 -132 -3z"/>
<path d="M4627 3515 c-51 -18 -52 -19 -53 -80 0 -30 -6 -60 -13 -68 -30 -37
22 -107 96 -129 25 -7 51 -21 57 -30 6 -10 16 -18 23 -18 22 0 14 -45 -12 -70
-22 -20 -31 -22 -85 -17 -46 4 -64 2 -76 -10 -37 -38 9 -73 96 -73 81 0 126
16 155 54 30 40 32 62 5 76 -13 7 -20 21 -20 40 0 19 -7 33 -20 40 -11 6 -20
17 -20 25 0 8 -10 20 -22 26 -13 7 -29 18 -36 26 -7 7 -20 13 -27 13 -17 0
-75 57 -75 74 0 24 84 48 144 41 60 -8 71 0 61 44 -5 24 -13 29 -56 39 -63 15
-74 15 -122 -3z"/>
<path d="M10560 3465 c-125 -33 -249 -148 -291 -270 -7 -22 -17 -45 -22 -52
-14 -19 -20 -253 -9 -326 13 -79 66 -196 113 -246 38 -39 117 -91 174 -113
102 -39 286 -30 383 20 65 33 182 142 182 169 0 44 -30 82 -88 108 -31 15 -65
31 -75 36 -9 5 -52 14 -94 20 -43 6 -85 15 -95 20 -31 17 -86 10 -108 -13 -22
-24 -25 -40 -10 -68 14 -25 63 -40 136 -40 40 0 79 -7 109 -20 26 -11 55 -20
65 -20 29 0 45 -27 34 -57 -10 -31 -87 -81 -125 -82 -14 -1 -30 -6 -37 -13
-16 -16 -139 -16 -192 1 -25 8 -57 23 -72 33 -14 10 -30 18 -35 18 -11 0 -62
54 -90 95 -52 75 -84 258 -48 271 8 3 151 7 317 7 270 2 307 4 339 20 49 24
60 52 52 134 -12 132 -109 280 -222 337 -87 45 -195 56 -291 31z m185 -55 c3
-5 15 -10 26 -10 27 0 119 -94 146 -150 25 -53 43 -125 43 -174 0 -64 -10 -66
-312 -66 -295 0 -298 1 -298 63 2 187 149 346 322 347 37 0 70 -4 73 -10z"/>
<path d="M11540 3466 c-56 -13 -105 -34 -152 -67 -14 -11 -33 -19 -42 -19 -28
0 -66 -31 -80 -64 -7 -17 -18 -62 -25 -101 -7 -38 -17 -84 -22 -101 -5 -17 -9
-73 -9 -126 0 -52 -5 -109 -11 -127 -15 -41 5 -152 35 -201 12 -19 27 -48 34
-64 20 -44 69 -102 106 -125 51 -32 121 -41 223 -31 90 9 123 22 234 89 l37
22 18 -25 c11 -13 27 -38 36 -55 15 -28 22 -31 65 -31 95 0 151 29 138 70 -5
17 -15 20 -60 20 -43 0 -56 4 -65 19 -6 12 -10 125 -11 293 0 150 -4 307 -8
348 -19 182 -122 278 -304 286 -45 2 -107 -3 -137 -10z m232 -87 c63 -44 84
-85 99 -195 16 -112 15 -113 -138 -131 -185 -22 -196 -24 -228 -38 -16 -7 -46
-20 -66 -28 -20 -8 -54 -31 -76 -50 -21 -19 -47 -37 -58 -39 -23 -3 -23 -7
-10 182 10 140 26 180 97 235 97 75 159 96 270 91 61 -3 84 -9 110 -27z m96
-391 c8 -8 12 -58 12 -160 0 -162 -5 -183 -57 -228 -33 -30 -57 -43 -137 -81
-36 -17 -182 -17 -198 -1 -7 7 -19 12 -28 12 -17 0 -31 22 -49 78 -6 18 -19
46 -31 61 -21 31 -28 105 -10 116 6 3 10 17 10 31 0 17 16 41 48 72 50 49 125
81 232 101 70 14 194 13 208 -1z"/>
<path d="M12710 3466 c-71 -20 -111 -44 -171 -102 -67 -66 -91 -66 -83 -1 10
82 -61 142 -101 85 -13 -20 -15 -80 -15 -467 1 -453 6 -521 39 -563 l18 -22
74 18 c41 10 99 30 129 46 181 92 211 116 189 151 -15 24 -10 73 11 104 11 17
20 42 20 57 0 22 -9 31 -55 53 -35 17 -55 34 -55 44 0 10 30 38 73 67 119 81
122 94 38 182 -73 76 -72 96 5 153 49 36 54 43 54 78 0 60 -24 107 -61 120
-38 13 -51 13 -109 -3z m60 -81 c15 -18 5 -49 -23 -72 -12 -10 -37 -35 -54
-56 -49 -56 -45 -88 17 -149 28 -27 50 -58 50 -68 0 -11 -21 -34 -55 -57 -30
-21 -59 -48 -65 -61 -14 -31 -2 -96 25 -137 38 -55 39 -70 8 -95 -22 -17 -27
-29 -27 -60 1 -28 -5 -45 -20 -58 -50 -47 -147 -84 -161 -62 -4 6 -6 157 -6
336 1 256 4 332 15 353 18 35 133 147 170 166 15 8 37 15 47 15 10 0 21 5 24
10 9 15 41 12 55 -5z"/>
<path d="M13400 3466 c-90 -17 -188 -73 -260 -149 -33 -33 -100 -161 -100
-187 0 -9 -5 -21 -10 -26 -18 -18 -16 -261 2 -320 50 -161 154 -274 302 -326
70 -25 188 -33 261 -18 145 30 295 138 235 170 -30 16 -42 12 -99 -30 -29 -22
-65 -43 -80 -46 -14 -3 -36 -11 -49 -17 -30 -14 -160 -13 -175 2 -6 6 -19 11
-29 11 -38 0 -126 63 -169 120 -130 175 -125 445 12 623 36 47 116 107 142
107 9 0 19 5 22 10 3 6 48 10 99 10 78 0 100 -4 142 -25 28 -14 63 -38 79 -55
33 -35 70 -39 85 -9 15 27 -5 58 -62 97 -89 61 -220 83 -348 58z"/>
<path d="M2675 3398 c-37 -20 -64 -50 -70 -78 -3 -16 -15 -39 -27 -52 -18 -20
-19 -31 -14 -92 8 -84 30 -118 91 -141 88 -34 218 -4 189 43 -8 13 -29 18 -85
22 l-74 5 -3 33 -3 32 66 0 c92 0 105 9 105 71 0 53 -31 129 -53 129 -7 0 -20
9 -30 20 -18 22 -60 26 -92 8z m79 -84 c26 -10 19 -22 -20 -34 -30 -10 -39
-10 -51 3 -9 8 -12 20 -9 26 8 12 55 15 80 5z"/>
<path d="M3059 3391 c-13 -10 -34 -21 -46 -25 -31 -10 -35 -27 -38 -163 l-2
-122 28 -27 c25 -24 38 -28 106 -32 69 -4 81 -2 105 17 24 19 26 25 15 42 -9
15 -23 19 -72 19 -70 0 -81 6 -90 43 l-7 27 73 0 c96 0 139 23 139 74 0 20 -6
36 -14 39 -8 3 -20 18 -28 33 -17 36 -93 94 -122 94 -13 0 -34 -8 -47 -19z
m99 -84 c18 -21 -24 -52 -52 -39 -11 6 -29 13 -40 16 -15 5 -16 9 -6 21 15 19
84 20 98 2z"/>
<path d="M3840 3403 c-8 -3 -34 -13 -56 -23 -35 -16 -43 -25 -48 -56 -10 -52
3 -59 59 -30 61 33 89 33 137 0 40 -28 45 -47 32 -110 -9 -44 -70 -87 -114
-81 -49 6 -109 47 -110 74 0 12 -5 34 -11 50 -10 26 -12 26 -19 8 -10 -27 -2
-92 18 -138 21 -51 55 -67 141 -67 66 0 72 2 103 33 48 48 65 106 50 165 -7
26 -22 59 -32 74 -11 15 -20 34 -20 43 0 9 -8 18 -17 22 -10 3 -25 12 -33 18
-19 15 -60 25 -80 18z"/>
<path d="M5065 3403 c-76 -17 -113 -55 -122 -125 -3 -24 -11 -50 -18 -58 -22
-26 -21 -43 9 -102 42 -83 52 -90 138 -91 102 -1 129 15 157 93 12 33 21 70
19 82 -3 25 -28 37 -28 14 0 -8 -22 -38 -50 -67 -48 -50 -51 -51 -92 -46 -23
3 -44 11 -46 17 -2 6 -15 15 -28 20 -22 9 -24 16 -24 67 0 54 2 60 34 86 50
39 104 35 153 -12 27 -26 40 -27 47 -3 13 39 -9 76 -60 104 -50 28 -54 29 -89
21z"/>
<path d="M2410 3385 c-7 -8 -25 -15 -41 -15 -18 0 -32 -7 -39 -19 -5 -11 -10
-84 -10 -166 0 -134 1 -146 18 -143 15 3 17 16 17 93 0 84 2 93 29 128 21 28
42 41 82 53 30 8 56 19 59 24 3 5 -5 20 -18 34 -28 29 -77 35 -97 11z"/>
<path d="M3324 3362 c-31 -20 -11 -96 35 -134 12 -10 21 -26 21 -35 1 -19 22
-53 34 -53 13 0 5 73 -13 118 -11 26 -24 61 -29 77 -9 30 -28 41 -48 27z"/>
<path d="M3567 3363 c-3 -5 -10 -34 -17 -65 -6 -32 -16 -60 -21 -63 -5 -4 -14
-26 -20 -51 -9 -35 -16 -44 -33 -44 -37 0 -46 -14 -45 -66 1 -64 -14 -102 -48
-116 -44 -19 -63 -39 -63 -68 0 -20 6 -29 22 -33 30 -8 47 3 112 73 l56 61 0
73 c0 64 3 74 19 79 11 3 22 17 26 36 4 18 15 37 26 44 10 6 19 18 19 25 0 6
9 20 20 29 13 12 20 30 20 55 0 37 -1 38 -34 38 -19 0 -37 -3 -39 -7z"/>
<path d="M4118 3288 c-3 -152 3 -183 42 -230 28 -33 28 -33 112 -32 47 1 102
7 123 14 37 12 37 12 31 57 -3 25 -8 48 -11 53 -6 10 -62 -9 -95 -32 -13 -10
-41 -18 -61 -18 -31 0 -40 6 -70 48 -31 43 -34 54 -38 130 -2 62 -6 82 -17 82
-11 0 -14 -18 -16 -72z"/>
<path d="M4397 3330 c-4 -19 -3 -51 2 -70 l8 -35 8 38 c4 21 3 52 -2 70 l-10
32 -6 -35z"/>
<path d="M4402 3200 c0 -14 2 -19 5 -12 2 6 2 18 0 25 -3 6 -5 1 -5 -13z"/>
<path d="M13637 3180 c-30 -30 -36 -44 -32 -62 7 -28 -14 -52 -42 -46 -12 2
-20 15 -23 38 -5 35 -5 35 -63 38 -53 3 -61 0 -85 -25 -26 -27 -27 -31 -27
-158 0 -127 1 -131 26 -157 33 -35 55 -38 38 -5 -7 12 -18 26 -25 30 -22 13
-18 86 6 111 11 12 31 34 45 49 21 23 28 26 45 17 16 -9 20 -21 20 -66 0 -68
-21 -83 -57 -38 -21 27 -23 27 -23 7 0 -43 10 -53 56 -53 37 0 46 4 53 23 5
12 5 26 0 32 -14 14 -10 98 5 118 7 9 25 17 39 17 28 0 57 44 57 86 0 33 24
43 78 30 65 -15 95 -48 100 -113 6 -70 22 -68 22 2 0 40 -4 57 -15 61 -8 4
-15 10 -15 15 0 16 -48 59 -67 59 -10 0 -28 7 -39 15 -27 20 -34 18 -77 -25z
m-129 -74 c3 -11 -14 -36 -46 -67 -48 -47 -50 -48 -67 -29 -21 23 -15 57 17
94 28 32 90 34 96 2z"/>
<path d="M5630 3131 c-16 -30 -12 -76 8 -94 23 -21 85 -22 102 -2 18 22 8 46
-29 66 -19 10 -39 25 -43 34 -12 20 -25 19 -38 -4z"/>
<path d="M5370 3070 c0 -5 5 -10 10 -10 6 0 10 5 10 10 0 6 -4 10 -10 10 -5 0
-10 -4 -10 -10z"/>
<path d="M13825 2959 c-4 -6 -30 -10 -64 -8 -31 1 -71 2 -88 1 l-33 -2 0 -92
c0 -64 3 -88 10 -78 5 8 10 43 10 77 0 58 2 63 24 69 13 3 37 5 52 3 61 -5
102 1 107 16 7 17 -9 30 -18 14z"/>
<path d="M13460 2750 c20 -13 167 -13 175 0 4 6 -29 10 -92 10 -67 0 -93 -3
-83 -10z"/>
</g>
</svg>
